# xmcd
#
# Track frame offsets: 
#        150
#        18411
#        33340
#        51931
#        72445
#        89964
#        108992
#        123672
#        140740
#        160813
#        176831
#        195867
#        200416
#        201619
#        202224
#        205842
#        210030
#        212575
#        216550
#
# Disc length: 2916 seconds
#
# Revision: 0
# Processed by: cddbd v1.5.1PL2 Copyright (c) Steve Scherf et al.
# Submitted via: ExactAudioCopy v0.95a5
#
DISCID=340b6213
DTITLE=Jimmy Bauer - Jimmy Bauer
DYEAR=2004
DGENRE=Latin
TTITLE0=Todas Tus Cosas
TTITLE1=Por Ti
TTITLE2=Te Recuerdo
TTITLE3=Luna O Sol
TTITLE4=Todas Tus Cosas (Pop-Rock)
TTITLE5=Pensando En Ti
TTITLE6=El Amor
TTITLE7=Por Ti (Pop-Rock)
TTITLE8=Sin Tu Saber
TTITLE9=Jam One
TTITLE10=Pensando En Ti (R&B)
TTITLE11=DJ Snip 1
TTITLE12=DJ Snip 2
TTITLE13=DJ Snip 3
TTITLE14=DJ Snip 4
TTITLE15=DJ Snip 5
TTITLE16=DJ Snip 6
TTITLE17=DJ Snip 7
TTITLE18=DJ Snip 8
EXTD=
EXTT0=
EXTT1=
EXTT2=
EXTT3=
EXTT4=
EXTT5=
EXTT6=
EXTT7=
EXTT8=
EXTT9=
EXTT10=
EXTT11=
EXTT12=
EXTT13=
EXTT14=
EXTT15=
EXTT16=
EXTT17=
EXTT18=
PLAYORDER=
